<svg width="86" height="28" viewBox="0 0 86 28" fill="none" xmlns="http://www.w3.org/2000/svg">
<path d="M85.381 1.97313C85.6423 1.48657 85.4597 0.880306 84.9731 0.619006C84.4866 0.357705 83.8803 0.540314 83.619 1.02687L85.381 1.97313ZM5.91111 8.58841C5.40765 8.36136 4.81546 8.58544 4.58841 9.08889L0.888443 17.2932C0.661395 17.7966 0.885467 18.3888 1.38892 18.6159C1.89238 18.8429 2.48457 18.6188 2.71162 18.1154L6.00048 10.8227L13.2932 14.1116C13.7966 14.3386 14.3888 14.1145 14.6159 13.6111C14.8429 13.1076 14.6188 12.5154 14.1154 12.2884L5.91111 8.58841ZM4.56471 9.85389C4.80234 10.4819 5.1062 11.1528 5.48076 11.8526L7.24402 10.9087C6.90772 10.2804 6.64041 9.68822 6.43529 9.14611L4.56471 9.85389ZM7.89621 15.4441C8.73596 16.4736 9.72312 17.518 10.8713 18.5421L12.2026 17.0495C11.1335 16.096 10.2193 15.128 9.44601 14.18L7.89621 15.4441ZM14.2549 21.154C15.3778 21.9043 16.6054 22.6233 17.9442 23.2945L18.8406 21.5066C17.5756 20.8724 16.4197 20.1951 15.366 19.4911L14.2549 21.154ZM21.8429 24.9819C23.1105 25.4509 24.4563 25.8775 25.8839 26.2527L26.3922 24.3184C25.0263 23.9594 23.7425 23.5523 22.5369 23.1062L21.8429 24.9819ZM30.0154 27.1474C31.3492 27.3781 32.7432 27.5664 34.1996 27.7067L34.3914 25.7159C32.9837 25.5803 31.6394 25.3986 30.3564 25.1766L30.0154 27.1474ZM38.3982 27.9688C39.0864 27.9894 39.787 28 40.5 28V26C39.8067 26 39.1262 25.9897 38.4582 25.9697L38.3982 27.9688ZM40.5 28C41.1517 28 41.7979 27.9872 42.4384 27.9622L42.3604 25.9638C41.7457 25.9878 41.1256 26 40.5 26V28ZM46.3014 27.6589C47.603 27.5048 48.8784 27.3009 50.127 27.0519L49.736 25.0905C48.5381 25.3293 47.3147 25.5249 46.0663 25.6727L46.3014 27.6589ZM53.892 26.1464C55.1507 25.7912 56.3784 25.3914 57.5742 24.9527L56.8853 23.0751C55.7363 23.4967 54.5572 23.8806 53.3489 24.2216L53.892 26.1464ZM61.154 23.4849C62.3445 22.9444 63.4984 22.3671 64.6147 21.7597L63.6588 20.0029C62.5834 20.5881 61.4725 21.1438 60.3272 21.6638L61.154 23.4849ZM67.9422 19.7947C69.0471 19.0895 70.1082 18.3577 71.1245 17.6074L69.9365 15.9985C68.9556 16.7227 67.9317 17.4287 66.8661 18.1089L67.9422 19.7947ZM74.1523 15.2116C75.1628 14.3558 76.1181 13.4874 77.0164 12.6167L75.6245 11.1805C74.7576 12.0207 73.8355 12.8591 72.8597 13.6854L74.1523 15.2116ZM79.6951 9.83541C80.6004 8.82667 81.4265 7.82918 82.1705 6.85933L80.5836 5.64202C79.8715 6.5703 79.0784 7.52828 78.2066 8.49952L79.6951 9.83541ZM84.396 3.66603C84.7609 3.08151 85.0896 2.51564 85.381 1.97313L83.619 1.02687C83.3499 1.52803 83.0432 2.05624 82.6995 2.60689L84.396 3.66603Z" fill="#F2BA2E"/>
</svg>
