<svg width="71" height="71" viewBox="0 0 71 71" fill="none" xmlns="http://www.w3.org/2000/svg">
<path d="M70.5 36C70.5 55.33 54.83 71 35.5 71C16.17 71 0.5 55.33 0.5 36C0.5 16.67 16.17 1 35.5 1C54.83 1 70.5 16.67 70.5 36ZM3.03112 36C3.03112 53.9321 17.5679 68.4689 35.5 68.4689C53.4321 68.4689 67.9689 53.9321 67.9689 36C67.9689 18.0679 53.4321 3.53112 35.5 3.53112C17.5679 3.53112 3.03112 18.0679 3.03112 36Z" fill="#CBD3FE"/>
<path d="M35.5 2.41323C35.5 1.08044 36.5818 -0.00878035 37.9113 0.0843448C42.6011 0.412836 47.1864 1.69699 51.3897 3.86927C56.311 6.41264 60.569 10.1013 63.8156 14.6336C67.0621 19.166 69.205 24.4133 70.0691 29.9466C70.8093 34.6866 70.593 39.5212 69.4428 44.1594C69.1242 45.444 67.7624 46.1324 66.5053 45.7182C65.263 45.3087 64.5927 43.9757 64.8958 42.7033C65.8301 38.781 65.9939 34.7023 65.3692 30.7016C64.6226 25.9206 62.7711 21.3867 59.9659 17.4705C57.1607 13.5544 53.4816 10.3673 49.2294 8.16968C45.6953 6.34328 41.8488 5.24349 37.9106 4.92407C36.5822 4.81632 35.5 3.74602 35.5 2.41323Z" fill="#4B66F9"/>
</svg>
