<svg width="177" height="208" viewBox="0 0 177 208" fill="none" xmlns="http://www.w3.org/2000/svg">
<ellipse cx="2.91758" cy="3.10711" rx="2.91758" ry="2.70953" fill="#F2BA2E"/>
<ellipse cx="45.7083" cy="3.10699" rx="2.91758" ry="2.70953" fill="#F2BA2E"/>
<ellipse cx="88.5002" cy="3.10699" rx="2.91758" ry="2.70953" fill="#F2BA2E"/>
<ellipse cx="131.291" cy="3.10699" rx="2.91758" ry="2.70953" fill="#F2BA2E"/>
<ellipse cx="174.082" cy="3.10699" rx="2.91758" ry="2.70953" fill="#F2BA2E"/>
<ellipse cx="2.91758" cy="25.5454" rx="2.91758" ry="2.70953" fill="#F2BA2E"/>
<ellipse cx="45.7083" cy="25.5453" rx="2.91758" ry="2.70953" fill="#F2BA2E"/>
<ellipse cx="88.5002" cy="25.5453" rx="2.91758" ry="2.70953" fill="#F2BA2E"/>
<ellipse cx="131.291" cy="25.5453" rx="2.91758" ry="2.70953" fill="#F2BA2E"/>
<ellipse cx="174.082" cy="25.5453" rx="2.91758" ry="2.70953" fill="#F2BA2E"/>
<ellipse cx="2.91758" cy="47.9837" rx="2.91758" ry="2.70953" fill="#F2BA2E"/>
<ellipse cx="45.7083" cy="47.9836" rx="2.91758" ry="2.70953" fill="#F2BA2E"/>
<ellipse cx="88.5002" cy="47.9836" rx="2.91758" ry="2.70953" fill="#F2BA2E"/>
<ellipse cx="131.291" cy="47.9836" rx="2.91758" ry="2.70953" fill="#F2BA2E"/>
<ellipse cx="174.082" cy="47.9836" rx="2.91758" ry="2.70953" fill="#F2BA2E"/>
<ellipse cx="2.91758" cy="70.422" rx="2.91758" ry="2.70953" fill="#F2BA2E"/>
<ellipse cx="45.7083" cy="70.4219" rx="2.91758" ry="2.70953" fill="#F2BA2E"/>
<ellipse cx="88.5002" cy="70.4219" rx="2.91758" ry="2.70953" fill="#F2BA2E"/>
<ellipse cx="131.291" cy="70.4219" rx="2.91758" ry="2.70953" fill="#F2BA2E"/>
<ellipse cx="174.082" cy="70.4219" rx="2.91758" ry="2.70953" fill="#F2BA2E"/>
<ellipse cx="2.91758" cy="92.8603" rx="2.91758" ry="2.70953" fill="#F2BA2E"/>
<ellipse cx="45.7083" cy="92.8602" rx="2.91758" ry="2.70953" fill="#F2BA2E"/>
<ellipse cx="88.5002" cy="92.8602" rx="2.91758" ry="2.70953" fill="#F2BA2E"/>
<ellipse cx="131.291" cy="92.8602" rx="2.91758" ry="2.70953" fill="#F2BA2E"/>
<ellipse cx="174.082" cy="92.8602" rx="2.91758" ry="2.70953" fill="#F2BA2E"/>
<ellipse cx="2.91758" cy="115.299" rx="2.91758" ry="2.70953" fill="#F2BA2E"/>
<ellipse cx="45.7083" cy="115.298" rx="2.91758" ry="2.70953" fill="#F2BA2E"/>
<ellipse cx="88.5002" cy="115.298" rx="2.91758" ry="2.70953" fill="#F2BA2E"/>
<ellipse cx="131.291" cy="115.298" rx="2.91758" ry="2.70953" fill="#F2BA2E"/>
<ellipse cx="174.082" cy="115.298" rx="2.91758" ry="2.70953" fill="#F2BA2E"/>
<ellipse cx="2.91758" cy="137.737" rx="2.91758" ry="2.70953" fill="#F2BA2E"/>
<ellipse cx="45.7083" cy="137.737" rx="2.91758" ry="2.70953" fill="#F2BA2E"/>
<ellipse cx="88.5002" cy="137.737" rx="2.91758" ry="2.70953" fill="#F2BA2E"/>
<ellipse cx="131.291" cy="137.737" rx="2.91758" ry="2.70953" fill="#F2BA2E"/>
<ellipse cx="174.082" cy="137.737" rx="2.91758" ry="2.70953" fill="#F2BA2E"/>
<ellipse cx="2.91758" cy="160.175" rx="2.91758" ry="2.70953" fill="#F2BA2E"/>
<ellipse cx="45.7083" cy="160.175" rx="2.91758" ry="2.70953" fill="#F2BA2E"/>
<ellipse cx="88.5002" cy="160.175" rx="2.91758" ry="2.70953" fill="#F2BA2E"/>
<ellipse cx="131.291" cy="160.175" rx="2.91758" ry="2.70953" fill="#F2BA2E"/>
<ellipse cx="174.082" cy="160.175" rx="2.91758" ry="2.70953" fill="#F2BA2E"/>
<ellipse cx="2.91758" cy="182.613" rx="2.91758" ry="2.70953" fill="#F2BA2E"/>
<ellipse cx="45.7083" cy="182.613" rx="2.91758" ry="2.70953" fill="#F2BA2E"/>
<ellipse cx="88.5002" cy="182.613" rx="2.91758" ry="2.70953" fill="#F2BA2E"/>
<ellipse cx="131.291" cy="182.613" rx="2.91758" ry="2.70953" fill="#F2BA2E"/>
<ellipse cx="174.082" cy="182.613" rx="2.91758" ry="2.70953" fill="#F2BA2E"/>
<ellipse cx="2.91758" cy="205.052" rx="2.91758" ry="2.70953" fill="#F2BA2E"/>
<ellipse cx="45.7083" cy="205.052" rx="2.91758" ry="2.70953" fill="#F2BA2E"/>
<ellipse cx="88.5002" cy="205.052" rx="2.91758" ry="2.70953" fill="#F2BA2E"/>
<ellipse cx="131.291" cy="205.052" rx="2.91758" ry="2.70953" fill="#F2BA2E"/>
<ellipse cx="174.082" cy="205.052" rx="2.91758" ry="2.70953" fill="#F2BA2E"/>
</svg>
