<svg width="156" height="320" viewBox="0 0 156 320" fill="none" xmlns="http://www.w3.org/2000/svg">
<ellipse cx="2.57143" cy="2.38818" rx="2.57143" ry="2.38806" fill="#F2BA2E"/>
<ellipse cx="40.2854" cy="2.38806" rx="2.57143" ry="2.38806" fill="#F2BA2E"/>
<ellipse cx="78" cy="2.38806" rx="2.57143" ry="2.38806" fill="#F2BA2E"/>
<ellipse cx="115.714" cy="2.38806" rx="2.57143" ry="2.38806" fill="#F2BA2E"/>
<ellipse cx="153.429" cy="2.38806" rx="2.57143" ry="2.38806" fill="#F2BA2E"/>
<ellipse cx="2.57143" cy="37.413" rx="2.57143" ry="2.38806" fill="#F2BA2E"/>
<ellipse cx="40.2854" cy="37.413" rx="2.57143" ry="2.38806" fill="#F2BA2E"/>
<ellipse cx="78" cy="37.413" rx="2.57143" ry="2.38806" fill="#F2BA2E"/>
<ellipse cx="115.714" cy="37.413" rx="2.57143" ry="2.38806" fill="#F2BA2E"/>
<ellipse cx="153.429" cy="37.413" rx="2.57143" ry="2.38806" fill="#F2BA2E"/>
<ellipse cx="2.57143" cy="72.4379" rx="2.57143" ry="2.38806" fill="#F2BA2E"/>
<ellipse cx="40.2854" cy="72.4379" rx="2.57143" ry="2.38806" fill="#F2BA2E"/>
<ellipse cx="78" cy="72.4379" rx="2.57143" ry="2.38806" fill="#F2BA2E"/>
<ellipse cx="115.714" cy="72.4379" rx="2.57143" ry="2.38806" fill="#F2BA2E"/>
<ellipse cx="153.429" cy="72.4379" rx="2.57143" ry="2.38806" fill="#F2BA2E"/>
<ellipse cx="2.57143" cy="107.463" rx="2.57143" ry="2.38806" fill="#F2BA2E"/>
<ellipse cx="40.2854" cy="107.463" rx="2.57143" ry="2.38806" fill="#F2BA2E"/>
<ellipse cx="78" cy="107.463" rx="2.57143" ry="2.38806" fill="#F2BA2E"/>
<ellipse cx="115.714" cy="107.463" rx="2.57143" ry="2.38806" fill="#F2BA2E"/>
<ellipse cx="153.429" cy="107.463" rx="2.57143" ry="2.38806" fill="#F2BA2E"/>
<ellipse cx="2.57143" cy="142.488" rx="2.57143" ry="2.38806" fill="#F2BA2E"/>
<ellipse cx="40.2854" cy="142.488" rx="2.57143" ry="2.38806" fill="#F2BA2E"/>
<ellipse cx="78" cy="142.488" rx="2.57143" ry="2.38806" fill="#F2BA2E"/>
<ellipse cx="115.714" cy="142.488" rx="2.57143" ry="2.38806" fill="#F2BA2E"/>
<ellipse cx="153.429" cy="142.488" rx="2.57143" ry="2.38806" fill="#F2BA2E"/>
<ellipse cx="2.57143" cy="177.512" rx="2.57143" ry="2.38806" fill="#F2BA2E"/>
<ellipse cx="40.2854" cy="177.512" rx="2.57143" ry="2.38806" fill="#F2BA2E"/>
<ellipse cx="78" cy="177.512" rx="2.57143" ry="2.38806" fill="#F2BA2E"/>
<ellipse cx="115.714" cy="177.512" rx="2.57143" ry="2.38806" fill="#F2BA2E"/>
<ellipse cx="153.429" cy="177.512" rx="2.57143" ry="2.38806" fill="#F2BA2E"/>
<ellipse cx="2.57143" cy="212.537" rx="2.57143" ry="2.38806" fill="#F2BA2E"/>
<ellipse cx="40.2854" cy="212.537" rx="2.57143" ry="2.38806" fill="#F2BA2E"/>
<ellipse cx="78" cy="212.537" rx="2.57143" ry="2.38806" fill="#F2BA2E"/>
<ellipse cx="115.714" cy="212.537" rx="2.57143" ry="2.38806" fill="#F2BA2E"/>
<ellipse cx="153.429" cy="212.537" rx="2.57143" ry="2.38806" fill="#F2BA2E"/>
<ellipse cx="2.57143" cy="247.562" rx="2.57143" ry="2.38806" fill="#F2BA2E"/>
<ellipse cx="40.2854" cy="247.562" rx="2.57143" ry="2.38806" fill="#F2BA2E"/>
<ellipse cx="78" cy="247.562" rx="2.57143" ry="2.38806" fill="#F2BA2E"/>
<ellipse cx="115.714" cy="247.562" rx="2.57143" ry="2.38806" fill="#F2BA2E"/>
<ellipse cx="153.429" cy="247.562" rx="2.57143" ry="2.38806" fill="#F2BA2E"/>
<ellipse cx="2.57143" cy="282.587" rx="2.57143" ry="2.38806" fill="#F2BA2E"/>
<ellipse cx="40.2853" cy="282.587" rx="2.57143" ry="2.38806" fill="#F2BA2E"/>
<ellipse cx="78.0001" cy="282.587" rx="2.57143" ry="2.38806" fill="#F2BA2E"/>
<ellipse cx="115.714" cy="282.587" rx="2.57143" ry="2.38806" fill="#F2BA2E"/>
<ellipse cx="153.428" cy="282.587" rx="2.57143" ry="2.38806" fill="#F2BA2E"/>
<ellipse cx="2.57143" cy="317.612" rx="2.57143" ry="2.38806" fill="#F2BA2E"/>
<ellipse cx="40.2854" cy="317.612" rx="2.57143" ry="2.38806" fill="#F2BA2E"/>
<ellipse cx="78" cy="317.612" rx="2.57143" ry="2.38806" fill="#F2BA2E"/>
<ellipse cx="115.714" cy="317.612" rx="2.57143" ry="2.38806" fill="#F2BA2E"/>
<ellipse cx="153.429" cy="317.612" rx="2.57143" ry="2.38806" fill="#F2BA2E"/>
</svg>
