<svg width="294" height="217" viewBox="0 0 294 217" fill="none" xmlns="http://www.w3.org/2000/svg">
<g filter="url(#filter0_d_1_177)">
<rect x="50" y="40" width="194" height="117" rx="20" fill="white"/>
</g>
<path d="M84.414 117.829C78.7503 121.882 73.1115 117.829 71 115.296V131H188V113.27C185.516 109.724 179.057 102.531 173.096 102.126C165.643 101.619 164.153 115.296 156.328 115.296C148.503 115.296 148.876 93.5141 136.952 93.0075C125.029 92.5009 122.793 117.829 115.713 117.829C108.634 117.829 109.006 108.204 100.809 106.685C92.6115 105.165 91.4936 112.764 84.414 117.829Z" fill="#FFC8B3"/>
<path d="M89 117.507C81.4 121.507 73.8333 117.507 71 115.007V130.507H228V113.007C224.667 109.507 216 102.407 208 102.007C198 101.507 196 115.007 185.5 115.007C175 115.007 175.5 93.5074 159.5 93.0074C143.5 92.5074 140.5 117.507 131 117.507C121.5 117.507 122 108.007 111 106.507C100 105.007 98.5 112.507 89 117.507Z" fill="#FA723D"/>
<path d="M77.8237 67.0352V68H71.7744V67.1558L74.8022 63.7852C75.1746 63.3704 75.4624 63.0192 75.6655 62.7314C75.8729 62.4395 76.0168 62.1792 76.0972 61.9507C76.1818 61.7179 76.2241 61.481 76.2241 61.2397C76.2241 60.9351 76.1606 60.66 76.0337 60.4146C75.911 60.1649 75.729 59.966 75.4878 59.8179C75.2466 59.6698 74.9546 59.5957 74.6118 59.5957C74.2013 59.5957 73.8586 59.6761 73.5835 59.8369C73.3127 59.9935 73.1095 60.2135 72.9741 60.4971C72.8387 60.7806 72.771 61.1064 72.771 61.4746H71.5967C71.5967 60.9541 71.7109 60.478 71.9395 60.0464C72.168 59.6147 72.5065 59.272 72.9551 59.0181C73.4036 58.7599 73.9559 58.6309 74.6118 58.6309C75.1958 58.6309 75.6951 58.7345 76.1099 58.9419C76.5246 59.145 76.842 59.4328 77.062 59.8052C77.2863 60.1733 77.3984 60.605 77.3984 61.1001C77.3984 61.3709 77.3519 61.646 77.2588 61.9253C77.1699 62.2004 77.0451 62.4754 76.8843 62.7505C76.7277 63.0256 76.5436 63.2964 76.332 63.563C76.1247 63.8296 75.9025 64.092 75.6655 64.3501L73.1899 67.0352H77.8237ZM80.5659 63.6011L79.6265 63.3599L80.0898 58.7578H84.8315V59.8433H81.0864L80.8071 62.3569C80.9764 62.2596 81.1901 62.1686 81.4482 62.084C81.7106 61.9993 82.0111 61.957 82.3496 61.957C82.777 61.957 83.16 62.0311 83.4985 62.1792C83.8371 62.3231 84.1248 62.5304 84.3618 62.8013C84.603 63.0721 84.7871 63.3979 84.9141 63.7788C85.041 64.1597 85.1045 64.585 85.1045 65.0547C85.1045 65.499 85.0431 65.9074 84.9204 66.2798C84.8019 66.6522 84.6221 66.978 84.3809 67.2573C84.1396 67.5324 83.835 67.7461 83.4668 67.8984C83.1029 68.0508 82.6733 68.127 82.1782 68.127C81.8058 68.127 81.4525 68.0762 81.1182 67.9746C80.7881 67.8688 80.4919 67.7101 80.2295 67.4985C79.9714 67.2827 79.7598 67.0161 79.5947 66.6987C79.4339 66.3771 79.3324 66.0005 79.29 65.5688H80.4072C80.458 65.9159 80.5596 66.2078 80.7119 66.4448C80.8643 66.6818 81.0632 66.8617 81.3086 66.9844C81.5583 67.1029 81.8481 67.1621 82.1782 67.1621C82.4575 67.1621 82.7051 67.1134 82.9209 67.0161C83.1367 66.9188 83.3187 66.7791 83.4668 66.5972C83.6149 66.4152 83.7271 66.1951 83.8032 65.937C83.8836 65.6789 83.9238 65.389 83.9238 65.0674C83.9238 64.7754 83.8836 64.5046 83.8032 64.2549C83.7228 64.0052 83.6022 63.7873 83.4414 63.6011C83.2848 63.4149 83.0923 63.271 82.8638 63.1694C82.6353 63.0636 82.3729 63.0107 82.0767 63.0107C81.6831 63.0107 81.3848 63.0636 81.1816 63.1694C80.9827 63.2752 80.7775 63.4191 80.5659 63.6011ZM86.5391 67.3779C86.5391 67.179 86.6004 67.0119 86.7231 66.8765C86.8501 66.7368 87.0321 66.667 87.269 66.667C87.506 66.667 87.6859 66.7368 87.8086 66.8765C87.9355 67.0119 87.999 67.179 87.999 67.3779C87.999 67.5726 87.9355 67.7376 87.8086 67.873C87.6859 68.0085 87.506 68.0762 87.269 68.0762C87.0321 68.0762 86.8501 68.0085 86.7231 67.873C86.6004 67.7376 86.5391 67.5726 86.5391 67.3779ZM91.5347 62.8013H92.3726C92.783 62.8013 93.1216 62.7336 93.3882 62.5981C93.659 62.4585 93.86 62.2702 93.9912 62.0332C94.1266 61.792 94.1943 61.5212 94.1943 61.2207C94.1943 60.8652 94.1351 60.5669 94.0166 60.3257C93.8981 60.0845 93.7204 59.9025 93.4834 59.7798C93.2464 59.6571 92.946 59.5957 92.582 59.5957C92.252 59.5957 91.96 59.6613 91.7061 59.7925C91.4564 59.9194 91.2596 60.1014 91.1157 60.3384C90.9761 60.5754 90.9062 60.8547 90.9062 61.1763H89.7319C89.7319 60.7065 89.8504 60.2791 90.0874 59.894C90.3244 59.509 90.6566 59.2021 91.084 58.9736C91.5156 58.7451 92.015 58.6309 92.582 58.6309C93.1406 58.6309 93.6294 58.7303 94.0483 58.9292C94.4673 59.1239 94.7931 59.4159 95.0259 59.8052C95.2586 60.1903 95.375 60.6706 95.375 61.2461C95.375 61.4788 95.32 61.7285 95.21 61.9951C95.1042 62.2575 94.937 62.5029 94.7085 62.7314C94.4842 62.96 94.1922 63.1483 93.8325 63.2964C93.4728 63.4403 93.0412 63.5122 92.5376 63.5122H91.5347V62.8013ZM91.5347 63.7661V63.0615H92.5376C93.1258 63.0615 93.6125 63.1313 93.9976 63.271C94.3826 63.4106 94.6852 63.5968 94.9053 63.8296C95.1296 64.0623 95.2861 64.3184 95.375 64.5977C95.4681 64.8727 95.5146 65.1478 95.5146 65.4229C95.5146 65.8545 95.4406 66.2375 95.2925 66.5718C95.1486 66.9061 94.9434 67.1896 94.6768 67.4224C94.4144 67.6551 94.1055 67.8307 93.75 67.9492C93.3945 68.0677 93.0073 68.127 92.5884 68.127C92.1864 68.127 91.8076 68.0698 91.4521 67.9556C91.1009 67.8413 90.7899 67.6763 90.519 67.4604C90.2482 67.2404 90.0366 66.9717 89.8843 66.6543C89.7319 66.3327 89.6558 65.9666 89.6558 65.5562H90.8301C90.8301 65.8778 90.8999 66.1592 91.0396 66.4004C91.1834 66.6416 91.3866 66.8299 91.6489 66.9653C91.9155 67.0965 92.2287 67.1621 92.5884 67.1621C92.9481 67.1621 93.257 67.1007 93.5151 66.978C93.7775 66.8511 93.9785 66.6606 94.1182 66.4067C94.262 66.1528 94.334 65.8333 94.334 65.4482C94.334 65.0632 94.2536 64.7479 94.0928 64.5024C93.932 64.2528 93.7035 64.0687 93.4072 63.9502C93.1152 63.8275 92.7703 63.7661 92.3726 63.7661H91.5347ZM102.935 62.6426V64.0518C102.935 64.8092 102.867 65.4482 102.732 65.9688C102.597 66.4893 102.402 66.9082 102.148 67.2256C101.894 67.543 101.587 67.7736 101.228 67.9175C100.872 68.0571 100.47 68.127 100.021 68.127C99.666 68.127 99.3381 68.0825 99.0376 67.9937C98.7371 67.9048 98.4663 67.763 98.2251 67.5684C97.9881 67.3695 97.785 67.1113 97.6157 66.7939C97.4465 66.4766 97.3174 66.0915 97.2285 65.6387C97.1396 65.1859 97.0952 64.6569 97.0952 64.0518V62.6426C97.0952 61.8851 97.1629 61.2503 97.2983 60.7383C97.438 60.2262 97.6348 59.8158 97.8887 59.5068C98.1426 59.1937 98.4473 58.9694 98.8027 58.834C99.1624 58.6986 99.5645 58.6309 100.009 58.6309C100.368 58.6309 100.699 58.6753 100.999 58.7642C101.304 58.8488 101.575 58.9863 101.812 59.1768C102.049 59.363 102.25 59.6126 102.415 59.9258C102.584 60.2347 102.713 60.6134 102.802 61.062C102.891 61.5106 102.935 62.0374 102.935 62.6426ZM101.754 64.2422V62.4458C101.754 62.0311 101.729 61.6672 101.678 61.354C101.632 61.0366 101.562 60.7658 101.469 60.5415C101.376 60.3172 101.257 60.1353 101.113 59.9956C100.974 59.856 100.811 59.7544 100.625 59.6909C100.443 59.6232 100.237 59.5894 100.009 59.5894C99.7295 59.5894 99.4819 59.6423 99.2661 59.748C99.0503 59.8496 98.8683 60.0125 98.7202 60.2368C98.5763 60.4611 98.4663 60.7552 98.3901 61.1191C98.314 61.4831 98.2759 61.9253 98.2759 62.4458V64.2422C98.2759 64.6569 98.2992 65.0229 98.3457 65.3403C98.3965 65.6577 98.4705 65.9328 98.5679 66.1655C98.6652 66.394 98.7837 66.5824 98.9233 66.7305C99.063 66.8786 99.2238 66.9886 99.4058 67.0605C99.592 67.1283 99.7972 67.1621 100.021 67.1621C100.309 67.1621 100.561 67.1071 100.777 66.9971C100.993 66.887 101.173 66.7157 101.316 66.4829C101.465 66.2459 101.575 65.9434 101.646 65.5752C101.718 65.2028 101.754 64.7585 101.754 64.2422ZM110.248 62.6426V64.0518C110.248 64.8092 110.18 65.4482 110.044 65.9688C109.909 66.4893 109.714 66.9082 109.46 67.2256C109.207 67.543 108.9 67.7736 108.54 67.9175C108.185 68.0571 107.783 68.127 107.334 68.127C106.979 68.127 106.651 68.0825 106.35 67.9937C106.05 67.9048 105.779 67.763 105.538 67.5684C105.301 67.3695 105.097 67.1113 104.928 66.7939C104.759 66.4766 104.63 66.0915 104.541 65.6387C104.452 65.1859 104.408 64.6569 104.408 64.0518V62.6426C104.408 61.8851 104.475 61.2503 104.611 60.7383C104.75 60.2262 104.947 59.8158 105.201 59.5068C105.455 59.1937 105.76 58.9694 106.115 58.834C106.475 58.6986 106.877 58.6309 107.321 58.6309C107.681 58.6309 108.011 58.6753 108.312 58.7642C108.616 58.8488 108.887 58.9863 109.124 59.1768C109.361 59.363 109.562 59.6126 109.727 59.9258C109.896 60.2347 110.025 60.6134 110.114 61.062C110.203 61.5106 110.248 62.0374 110.248 62.6426ZM109.067 64.2422V62.4458C109.067 62.0311 109.042 61.6672 108.991 61.354C108.944 61.0366 108.874 60.7658 108.781 60.5415C108.688 60.3172 108.57 60.1353 108.426 59.9956C108.286 59.856 108.123 59.7544 107.937 59.6909C107.755 59.6232 107.55 59.5894 107.321 59.5894C107.042 59.5894 106.794 59.6423 106.579 59.748C106.363 59.8496 106.181 60.0125 106.033 60.2368C105.889 60.4611 105.779 60.7552 105.703 61.1191C105.626 61.4831 105.588 61.9253 105.588 62.4458V64.2422C105.588 64.6569 105.612 65.0229 105.658 65.3403C105.709 65.6577 105.783 65.9328 105.88 66.1655C105.978 66.394 106.096 66.5824 106.236 66.7305C106.375 66.8786 106.536 66.9886 106.718 67.0605C106.904 67.1283 107.11 67.1621 107.334 67.1621C107.622 67.1621 107.874 67.1071 108.089 66.9971C108.305 66.887 108.485 66.7157 108.629 66.4829C108.777 66.2459 108.887 65.9434 108.959 65.5752C109.031 65.2028 109.067 64.7585 109.067 64.2422Z" fill="black"/>
<path d="M117 67.5L121 62.5L125.5 67.5L132.5 58.5L137.5 67.5L145.5 51.5" stroke="#45DB4B" stroke-width="2" stroke-linecap="round"/>
<defs>
<filter id="filter0_d_1_177" x="0" y="0" width="294" height="217" filterUnits="userSpaceOnUse" color-interpolation-filters="sRGB">
<feFlood flood-opacity="0" result="BackgroundImageFix"/>
<feColorMatrix in="SourceAlpha" type="matrix" values="0 0 0 0 0 0 0 0 0 0 0 0 0 0 0 0 0 0 127 0" result="hardAlpha"/>
<feOffset dy="10"/>
<feGaussianBlur stdDeviation="25"/>
<feColorMatrix type="matrix" values="0 0 0 0 0.0117647 0 0 0 0 0.0705882 0 0 0 0 0.113725 0 0 0 0.1 0"/>
<feBlend mode="normal" in2="BackgroundImageFix" result="effect1_dropShadow_1_177"/>
<feBlend mode="normal" in="SourceGraphic" in2="effect1_dropShadow_1_177" result="shape"/>
</filter>
</defs>
</svg>
