<svg width="100" height="70" viewBox="0 0 100 70" fill="none" xmlns="http://www.w3.org/2000/svg">
<rect width="100" height="70" rx="10" fill="#F2BA2E"/>
<path d="M72.3514 28.2996H67.499H59.5263H55.2044C55.3292 28.0577 55.4463 27.8081 55.5633 27.5506C56.8193 24.9529 57.5604 20.6778 56.3434 16.746C55.8987 15.3028 55.259 13.8128 53.34 13.1419C52.552 12.8689 50.2351 12.8533 50.2351 14.3667C50.2351 14.3667 50.9528 18.8368 50.2351 20.9587C49.1429 24.2039 47.2629 26.7003 46.0459 28.2918H42.629V53.9966H55.0172H67.4834H67.8423C69.5039 53.9966 70.8613 52.647 70.8613 50.9775V50.5796C70.8613 48.918 69.5117 47.5606 67.8423 47.5606H69.4415C71.1032 47.5606 72.4606 46.211 72.4606 44.5416V44.1437C72.4606 42.482 71.111 41.1247 69.4415 41.1247H70.9003C72.562 41.1247 73.9194 39.7751 73.9194 38.1056V37.7077C73.9194 36.0461 72.5698 34.6887 70.9003 34.6887H72.3358C73.9974 34.6887 75.3548 33.3391 75.3548 31.6697V31.2718C75.3704 29.6492 74.0208 28.2996 72.3514 28.2996Z" fill="white"/>
<path d="M37.6052 57.0001H26.5665C25.3807 57.0001 24.4212 56.0406 24.4212 54.8548V28.1749C24.4212 26.9891 25.3807 26.0295 26.5665 26.0295H37.6052C38.7909 26.0295 39.7505 26.9891 39.7505 28.1749V54.8548C39.7505 56.0406 38.7831 57.0001 37.6052 57.0001Z" fill="white"/>
<path d="M35.2415 54.558C36.4651 54.558 37.457 53.5661 37.457 52.3425C37.457 51.1189 36.4651 50.127 35.2415 50.127C34.0179 50.127 33.026 51.1189 33.026 52.3425C33.026 53.5661 34.0179 54.558 35.2415 54.558Z" fill="#F2BA2E"/>
</svg>
