<svg width="71" height="71" viewBox="0 0 71 71" fill="none" xmlns="http://www.w3.org/2000/svg">
<path d="M70.5 36C70.5 55.33 54.83 71 35.5 71C16.17 71 0.5 55.33 0.5 36C0.5 16.67 16.17 1 35.5 1C54.83 1 70.5 16.67 70.5 36ZM3.03112 36C3.03112 53.9321 17.5679 68.4689 35.5 68.4689C53.4321 68.4689 67.9689 53.9321 67.9689 36C67.9689 18.0679 53.4321 3.53112 35.5 3.53112C17.5679 3.53112 3.03112 18.0679 3.03112 36Z" fill="#CBD3FE"/>
<path d="M70.5 35.5C70.5 55.1061 54.83 71 35.5 71C16.17 71 0.5 55.1061 0.5 35.5C0.5 15.8939 16.17 0 35.5 0C54.83 0 70.5 15.8939 70.5 35.5ZM5.25848 35.5C5.25848 52.4405 18.7981 66.1735 35.5 66.1735C52.2019 66.1735 65.7415 52.4405 65.7415 35.5C65.7415 18.5595 52.2019 4.82646 35.5 4.82646C18.7981 4.82646 5.25848 18.5595 5.25848 35.5Z" fill="#4B66F9"/>
</svg>
