<svg width="71" height="71" viewBox="0 0 71 71" fill="none" xmlns="http://www.w3.org/2000/svg">
<path d="M70.5 36C70.5 55.33 54.83 71 35.5 71C16.17 71 0.5 55.33 0.5 36C0.5 16.67 16.17 1 35.5 1C54.83 1 70.5 16.67 70.5 36ZM3.03112 36C3.03112 53.9321 17.5679 68.4689 35.5 68.4689C53.4321 68.4689 67.9689 53.9321 67.9689 36C67.9689 18.0679 53.4321 3.53112 35.5 3.53112C17.5679 3.53112 3.03112 18.0679 3.03112 36Z" fill="#CBD3FE"/>
<path d="M35.5 2.41323C35.5 1.08044 36.5818 -0.00877948 37.9113 0.084347C41.6824 0.348488 45.3918 1.23093 48.8939 2.70228C53.1403 4.48632 56.9987 7.10123 60.2487 10.3977C63.4988 13.6942 66.0769 17.6077 67.8358 21.9147C69.5947 26.2218 70.5 30.8381 70.5 35.5C70.5 40.1619 69.5947 44.7782 67.8358 49.0853C66.0769 53.3923 63.4988 57.3058 60.2487 60.6023C56.9987 63.8988 53.1403 66.5137 48.8939 68.2977C45.3918 69.7691 41.6823 70.6515 37.9113 70.9157C36.5818 71.0088 35.5 69.9196 35.5 68.5868C35.5 67.254 36.5822 66.1837 37.9106 66.0759C41.0563 65.8208 44.1483 65.0674 47.0729 63.8387C50.742 62.2972 54.0758 60.0378 56.884 57.1895C59.6922 54.3412 61.9197 50.9597 63.4395 47.2383C64.9593 43.5168 65.7415 39.5281 65.7415 35.5C65.7415 31.4719 64.9593 27.4832 63.4395 23.7617C61.9197 20.0403 59.6922 16.6588 56.884 13.8105C54.0758 10.9622 50.742 8.70284 47.0729 7.16135C44.1483 5.93262 41.0563 5.17921 37.9106 4.92407C36.5822 4.81632 35.5 3.74602 35.5 2.41323Z" fill="#4B66F9"/>
</svg>
