<svg width="97" height="103" viewBox="0 0 97 103" fill="none" xmlns="http://www.w3.org/2000/svg">
<path d="M97 31.1911C97 37.9376 95.9055 44.3607 93.7165 50.4603C91.5275 56.6523 88.7 62.3822 85.2341 67.6501C81.7682 73.0103 77.9375 77.8623 73.7419 82.2059C69.4551 86.5496 65.3051 90.2463 61.292 93.2961C57.1876 96.4383 53.448 98.8412 50.0733 100.505C46.6074 102.168 43.9168 103 42.0014 103C40.7245 103 40.086 102.538 40.086 101.614C40.086 100.32 41.2717 98.795 43.6432 97.039C45.9234 95.3755 48.6596 93.1113 51.8519 90.2463C53.7673 88.5828 55.6826 86.642 57.598 84.424C59.5134 82.2983 61.2007 79.9879 62.6601 77.4926C64.1194 74.9973 65.3051 72.3172 66.2172 69.4522C67.1293 66.6797 67.5853 63.8609 67.5853 60.996C67.5853 57.022 66.7645 53.5101 65.1227 50.4603C63.3898 47.4105 61.52 44.4069 59.5134 41.4495C57.4156 38.5846 55.5458 35.6272 53.9041 32.5774C52.1711 29.5276 51.3047 26.0157 51.3047 22.0417C51.3047 14.9255 53.3112 9.47286 57.3244 5.68371C61.2464 1.89457 66.3084 -5.49403e-07 72.5106 0C75.7941 2.9086e-07 78.8952 0.5083 81.8138 1.5249C84.7325 2.5415 87.3319 4.25124 89.6121 6.65411C91.8923 9.1494 93.7165 12.384 95.0846 16.358C96.3615 20.332 97 25.2764 97 31.1911ZM40.086 38.8156C40.086 44.1759 39.4476 49.2126 38.1707 53.926C36.8937 58.6393 35.252 62.9829 33.2454 66.9569C31.2388 70.9309 29.0042 74.4428 26.5416 77.4926C23.9878 80.6348 21.5252 83.2687 19.1537 85.3943C16.7823 87.6124 14.5933 89.2759 12.5867 90.3849C10.4889 91.5864 8.8928 92.1871 7.7983 92.1871C6.52139 92.1871 5.88293 91.5401 5.88293 90.2463C5.88293 89.1373 6.56699 87.8434 7.93512 86.3647C9.21203 84.886 10.6714 83.1301 12.3131 81.0969C13.9549 79.1561 15.4598 76.7995 16.8279 74.0269C18.1048 71.3468 18.7433 68.2046 18.7433 64.6003C18.7433 60.9035 17.7856 57.8075 15.8702 55.3122C13.8637 52.817 11.7203 50.4141 9.44005 48.1036C7.06864 45.8856 4.92525 43.5289 3.00987 41.0336C1.00329 38.5384 -3.18947e-07 35.4423 0 31.7456C1.83395e-07 29.62 0.410438 27.4482 1.23131 25.2301C1.96098 23.1045 3.10108 21.1637 4.65162 19.4078C6.11096 17.6519 7.98073 16.2194 10.2609 15.1104C12.4499 14.0938 15.0038 13.5855 17.9224 13.5855C21.3883 13.5855 24.4894 14.2324 27.2257 15.5262C29.9619 16.8201 32.2877 18.576 34.2031 20.7941C36.1185 23.0121 37.5778 25.646 38.5811 28.6958C39.5844 31.838 40.086 35.2113 40.086 38.8156Z" fill="#FA723D"/>
</svg>
