<svg width="71" height="71" viewBox="0 0 71 71" fill="none" xmlns="http://www.w3.org/2000/svg">
<path d="M70.5 36C70.5 55.33 54.83 71 35.5 71C16.17 71 0.5 55.33 0.5 36C0.5 16.67 16.17 1 35.5 1C54.83 1 70.5 16.67 70.5 36ZM3.03112 36C3.03112 53.9321 17.5679 68.4689 35.5 68.4689C53.4321 68.4689 67.9689 53.9321 67.9689 36C67.9689 18.0679 53.4321 3.53112 35.5 3.53112C17.5679 3.53112 3.03112 18.0679 3.03112 36Z" fill="#CBD3FE"/>
<path d="M35.5 2.41323C35.5 1.08044 36.5818 -0.00878254 37.9114 0.0843358C43.9851 0.509731 49.8597 2.53642 54.945 5.98283C60.7007 9.88362 65.1867 15.428 67.8358 21.9147C70.4848 28.4015 71.178 35.5394 69.8275 42.4257C68.477 49.312 65.1436 55.6375 60.2487 60.6023C55.3539 65.5671 49.1175 68.9481 42.3282 70.3179C35.5388 71.6877 28.5015 70.9846 22.1061 68.2977C15.7107 65.6108 10.2444 61.0607 6.39856 55.2227C2.98816 50.0458 0.987828 44.0624 0.578571 37.8776C0.491809 36.5665 1.56522 35.5 2.87924 35.5C4.19326 35.5 5.24901 36.5668 5.34941 37.877C5.75009 43.1062 7.46771 48.1583 10.3551 52.5413C13.6781 57.5855 18.4012 61.517 23.9271 63.8387C29.453 66.1603 35.5335 66.7677 41.3998 65.5842C47.2661 64.4006 52.6546 61.4792 56.884 57.1895C61.1133 52.8997 63.9936 47.4342 65.1604 41.4841C66.3273 35.534 65.7284 29.3666 63.4395 23.7617C61.1506 18.1569 57.2745 13.3663 52.3013 9.99589C47.9988 7.07997 43.0423 5.34025 37.9107 4.92406C36.5823 4.81632 35.5 3.74602 35.5 2.41323Z" fill="#4B66F9"/>
</svg>
